<svg version="1.1" id="Calque_1" xmlns="http://www.w3.org/2000/svg" xmlns:xlink="http://www.w3.org/1999/xlink" x="0" y="0" viewBox="0 0 45.93 45.46" style="enable-background:new 0 0 45.93 45.46" xml:space="preserve"><style>.st1{opacity:.68}</style><circle cx="22.48" cy="23.21" r="22" style="fill:#fff"/><g class="st1"><defs><path id="SVGID_1_" d="M11.66 13.65h27.71v7.48H11.66z"/></defs><clipPath id="SVGID_2_"><use xlink:href="#SVGID_1_" style="overflow:visible"/></clipPath><path d="M18.02 18.08c.91-.57 1.83-1.13 2.72-1.71.79-.52.98-1.28.53-2.02-.47-.78-1.14-.9-2.01-.35-2.19 1.37-4.37 2.76-6.58 4.11-.71.43-1.18.94-.96 1.82.23.94.94 1.05 1.75 1.06 8.02.04 16.04.1 24.05.15 1.2.01 1.88-.5 1.85-1.39-.03-.86-.66-1.35-1.82-1.35l-18.53-.12-.97-.01-.03-.19z" style="clip-path:url(#SVGID_2_);fill:#8dcfa8"/></g><g class="st1"><defs><path id="SVGID_3_" d="M5.14 25.1h27.71v7.48H5.14z"/></defs><clipPath id="SVGID_4_"><use xlink:href="#SVGID_3_" style="overflow:visible"/></clipPath><path d="M26.49 28.15c-.91.57-1.83 1.13-2.72 1.71-.79.52-.98 1.28-.53 2.02.47.78 1.14.9 2.01.35 2.19-1.37 4.37-2.76 6.58-4.11.71-.43 1.18-.94.96-1.82-.23-.94-.94-1.05-1.75-1.06-8.02-.04-16.04-.09-24.05-.14-1.2-.01-1.88.5-1.85 1.39.03.86.66 1.35 1.82 1.35l18.53.12.97.01.03.18z" style="clip-path:url(#SVGID_4_)"/></g></svg>
