<svg xmlns="http://www.w3.org/2000/svg" viewBox="0 0 45.93 45.46" style="enable-background:new 0 0 45.93 45.46" xml:space="preserve"><circle cx="23" cy="23" r="22" style="fill:#fff"/><path d="M26.45 14c5.05 0 9.14 4.09 9.14 9.14s-4.09 9.14-9.14 9.14c-5.05 0-9.14-4.09-9.14-9.14S21.4 14 26.45 14" style="fill:#8dcfa8"/><path d="M26.45 14c5.05 0 9.14 4.09 9.14 9.14s-4.09 9.14-9.14 9.14c-5.05 0-9.14-4.09-9.14-9.14S21.4 14 26.45 14" style="fill:none;stroke:#8dcfa8;stroke-width:.25;stroke-miterlimit:10"/><path d="M21.88 14h0m0 18.29h0c5.05 0 9.14-4.09 9.14-9.14S26.93 14 21.88 14c-5.05 0-9.14 4.09-9.14 9.14s4.09 9.15 9.14 9.15" style="fill:none;stroke:#000;stroke-width:1.5;stroke-linecap:round;stroke-linejoin:round"/></svg>
