<svg version="1.1" id="Calque_1" xmlns="http://www.w3.org/2000/svg" x="0" y="0" viewBox="0 0 36 25" style="enable-background:new 0 0 36 25" xml:space="preserve"><style>.st1{fill:none;stroke:#000;stroke-width:1.5;stroke-miterlimit:10}</style><path d="M29.15 21.96h-16c-2.75 0-5-2.25-5-5v-10c0-2.75 2.25-5 5-5h16c2.75 0 5 2.25 5 5v10c0 2.75-2.25 5-5 5z" style="fill:#8dcfa8"/><path class="st1" d="M23.65 22.46h-16c-2.75 0-5-2.25-5-5v-10c0-2.75 2.25-5 5-5h16c2.75 0 5 2.25 5 5v10c0 2.75-2.25 5-5 5z"/><circle class="st1" cx="23.15" cy="12.96" r="2"/></svg>
