<?xml version="1.0" standalone="no"?>
<!DOCTYPE svg PUBLIC "-//W3C//DTD SVG 20010904//EN"
 "http://www.w3.org/TR/2001/REC-SVG-20010904/DTD/svg10.dtd">
<svg version="1.0" xmlns="http://www.w3.org/2000/svg"
 width="333.000000pt" height="333.000000pt" viewBox="0 0 333.000000 333.000000"
 preserveAspectRatio="xMidYMid meet">
<metadata>
Created by potrace 1.14, written by Peter Selinger 2001-2017
</metadata>
<g transform="translate(0.000000,333.000000) scale(0.100000,-0.100000)"
fill="#000000" stroke="none">
<path d="M1313 2842 c-18 -16 -33 -32 -33 -36 0 -8 -395 -805 -407 -821 -5 -6
-64 -125 -133 -265 -69 -140 -129 -258 -133 -261 -5 -3 -9 -12 -11 -20 -1 -8
-17 -42 -34 -76 -70 -138 -92 -184 -92 -192 0 -5 -3 -11 -7 -13 -5 -1 -51 -91
-103 -198 -52 -107 -97 -197 -100 -200 -3 -3 -26 -48 -52 -101 -47 -94 -51
-117 -28 -158 l11 -21 1453 0 c1395 0 1454 1 1469 18 10 10 17 32 17 48 -1 29
-1108 2254 -1142 2293 -25 29 -66 37 -97 18 -22 -13 -77 -90 -82 -115 -3 -11
-43 -96 -49 -102 -3 -3 -6 -12 -8 -20 -2 -8 -8 -16 -13 -18 -5 -2 -9 -8 -9
-14 0 -14 -32 -82 -43 -89 -5 -3 -8 -9 -8 -13 3 -14 -31 -68 -38 -60 -4 5 -22
43 -41 84 -19 41 -37 77 -40 80 -3 3 -30 56 -60 119 -65 134 -78 150 -122 157
-27 5 -39 0 -65 -24z m137 -407 c41 -85 78 -155 82 -155 5 0 7 -3 6 -7 0 -5 2
-16 7 -26 8 -20 -10 -62 -125 -287 -35 -69 -64 -127 -65 -130 -3 -12 -481
-966 -487 -970 -3 -3 -8 -12 -10 -19 -2 -8 -17 -40 -33 -70 -17 -31 -38 -74
-48 -97 l-18 -41 -185 0 c-101 0 -184 2 -184 5 0 11 185 377 193 380 4 2 7 9
7 15 0 15 322 660 333 668 5 3 8 9 7 13 -1 8 186 386 199 402 6 7 7 15 4 18
-4 3 -1 6 5 6 7 0 12 5 12 11 0 15 32 83 43 90 5 3 8 9 7 13 -2 9 63 140 73
147 5 3 8 9 8 13 -2 11 80 176 87 175 4 0 41 -70 82 -154z"/>
</g>
</svg>
